<svg width="36" height="56" viewBox="0 0 36 56" fill="none" xmlns="http://www.w3.org/2000/svg">
<path fill-rule="evenodd" clip-rule="evenodd" d="M13.3333 7.46667V5.5961C13.3333 3.54342 15.0088 1.86667 17.0757 1.86667H18.9242C20.998 1.86667 22.6666 3.53639 22.6666 5.5961V7.46667H26.4082C27.4362 7.46667 28.2666 8.30153 28.2666 9.33139V11.2019C28.2666 12.2404 27.4346 13.0667 26.4082 13.0667H9.59168C8.56363 13.0667 7.73327 12.2318 7.73327 11.2019V9.33139C7.73327 8.29297 8.56531 7.46667 9.59168 7.46667H13.3333ZM11.4666 5.6H9.60509C7.5434 5.6 5.87151 7.26373 5.86661 9.33333H3.99512C1.93592 9.33333 0.266602 10.9942 0.266602 13.0734V52.26C0.266602 54.3255 1.92966 56 3.99512 56H32.0047C34.064 56 35.7333 54.3391 35.7333 52.26V13.0734C35.7333 11.0078 34.0702 9.33333 32.0047 9.33333H30.1333C30.1284 7.27063 28.4623 5.6 26.3948 5.6H24.5333C24.5316 2.50692 22.0128 0 18.916 0H17.0839C13.9826 0 11.4683 2.49784 11.4666 5.6ZM30.1333 11.2H32C33.0178 11.2 33.8666 12.0383 33.8666 13.0724V52.2609C33.8666 53.314 33.0309 54.1333 32 54.1333H3.99986C2.98206 54.1333 2.13327 53.295 2.13327 52.2609V13.0724C2.13327 12.0193 2.96897 11.2 3.99986 11.2H5.86661C5.87151 13.2627 7.53759 14.9333 9.60509 14.9333H26.3948C28.4565 14.9333 30.1284 13.2696 30.1333 11.2ZM17.9999 7.46667C18.5154 7.46667 18.9333 7.0488 18.9333 6.53333C18.9333 6.01787 18.5154 5.6 17.9999 5.6C17.4845 5.6 17.0666 6.01787 17.0666 6.53333C17.0666 7.0488 17.4845 7.46667 17.9999 7.46667ZM15.6732 42.3459L30.1925 27.8266L28.8726 26.5067L15.6732 39.706L8.68697 32.7197L7.36704 34.0397L15.6732 42.3459Z" fill="#808080"/>
</svg>
